<?xml version="1.0" encoding="utf-8"?>
<!-- Generator: Adobe Illustrator 25.2.0, SVG Export Plug-In . SVG Version: 6.00 Build 0)  -->
<svg version="1.1" id="Livello_1" xmlns="http://www.w3.org/2000/svg" xmlns:xlink="http://www.w3.org/1999/xlink" x="0px" y="0px"
	 width="900px" height="300px" viewBox="0 0 900 300" style="enable-background:new 0 0 900 300;" xml:space="preserve">
<style type="text/css">
	.st0{fill:#00989E;}
	.st1{fill:#404040;}
	.st2{fill:#009AA0;}
</style>
<g>
	<g>
		<path class="st0" d="M307.7,110.7c0.2-30.5,27.7-24.1,46.9-24.9c22.1-1.5,34.6,10.3,32.1,33.6h-68.6c-1,15.8,4.6,22,24.9,21.5
			c11.1-0.6,34.5,3.4,33.3-11.1h10.4c3,22.5-32,19.7-50,19.6C313.1,150.9,305.2,136.6,307.7,110.7z M376.2,106.8
			c2.1-12.9-23.8-13.4-36.9-12.6c-16.4,0-20.3,2.7-21.3,16.7h58.2V106.8z"/>
		<path class="st0" d="M473.5,140.2h-0.2c-2.1,12.6-27.6,8.6-38,9.2c-21.4,0-30.2-6.8-30.2-26.7c-2.7-23.3,7-38.4,28.5-36.9
			c12.2,0.5,35.3-3.4,40.4,10.8h0.2v-9.8h9.7v83.2h-10.4V140.2z M473.5,112c2.5-20.8-25.2-18-39.6-17.8
			c-21.1-1.3-18.6,15.5-18.5,29.8c-1.3,22.7,23.6,15.8,37.9,16.9C472.1,142.6,475,128.8,473.5,112z"/>
		<path class="st0" d="M574.7,137.8h-0.2c-4.3,14.5-27.1,11.3-40.5,11.6c-38.4,1.2-22.5-41.2-25.6-62.7h10.4v39.2
			c0,9.1,2.5,15,22.7,15c23.1,0.6,33.6-3.7,32.5-19.1c0,0,0-35.1,0-35.1h10.4v61.7h-9.7V137.8z"/>
		<path class="st0" d="M610.3,60.8h10.4v11.4h-10.4V60.8z M610.3,86.7h10.4v61.7h-10.4V86.7z"/>
		<path class="st0" d="M646.6,86.7h9.7v9.8h0.2c5.1-14.1,28.2-10.3,40.4-10.8c21.5-1.5,31.3,13.5,28.5,36.9c0,20-8.8,26.7-30.2,26.7
			c-10.4-0.6-35.9,3.4-38-9.2H657v29.8h-10.4V86.7z M715.1,111.9c3.3-22-24.6-17.4-39.2-17.7c-20-0.6-19.4,15.7-18.9,29.5
			c-0.4,23.1,24.4,16,38.7,17.2C715,142.9,716.1,127.7,715.1,111.9z"/>
		<path class="st0" d="M744.3,110.7c0.2-30.5,27.8-24.1,46.9-24.9c22.1-1.5,34.6,10.3,32.1,33.6h-68.6c-1,15.8,4.6,22,24.9,21.5
			c11.1-0.6,34.5,3.4,33.3-11.1h10.4c3,22.5-32,19.7-50,19.6C749.8,150.9,741.8,136.6,744.3,110.7z M812.9,106.8
			c2.1-12.9-23.8-13.4-36.9-12.6c-16.4,0-20.3,2.7-21.3,16.7h58.2V106.8z"/>
	</g>
	<rect x="248.7" y="62.3" class="st1" width="4.5" height="179.4"/>
	<g>
		<path class="st0" d="M0.8,135.2c0.6-72.5,66-57.3,111.6-59.2c53.3-2.7,82,23.4,76.2,80H25.6c-2.4,37.5,10.9,52.3,59.3,51.2
			c26.5-1.3,82,8.2,79.1-26.5h24.7c7.1,53.5-76,46.9-118.8,46.6C11.8,229.5-4,198.7,0.8,135.2z M163.9,126
			c2.4-32.8-54.7-30.8-87.7-29.9c-39.1,0-48.3,6.3-50.6,39.7h138.3V126z"/>
	</g>
</g>
<path class="st1" d="M311.1,176.8h3.7v12.9h0.1c1.5-5.1,9.3-4,14-4.1c13.7-0.5,7.8,14.6,9,22.1h-3.7c-1.5-6.9,5-20.1-8-19.1
	c-15.7-1.9-10.7,10.2-11.5,19.1h-3.7V176.8z"/>
<path class="st1" d="M345.5,194.4c0.1-10.8,9.8-8.5,16.6-8.8c7.8-0.5,12.2,3.6,11.3,11.9h-24.2c-0.4,5.6,1.6,7.8,8.8,7.6
	c3.9-0.2,12.2,1.2,11.7-3.9h3.7c1.1,7.9-11.3,7-17.6,6.9C348.2,209,344.3,202.8,345.5,194.4z M369.7,193c1.1-4.3-8.7-4.9-13-4.4
	c-5.8,0-7.2,0.9-7.5,5.9h20.5V193z"/>
<path class="st1" d="M403.4,205.5L403.4,205.5c-1.1,2-2.2,2.5-7.9,2.5c-5.4-0.1-17.1,1.7-15.8-6.5c-0.5-5.8,2.6-7.2,9.9-7
	c3.9,0.1,12.6-0.8,13.7,2.6h0.1c0.3-5.8,0.2-9.1-8.1-8.5c-3.4,0.1-12.4-0.9-10.9,3.7h-3.7c-1.7-7.2,8.8-6.9,14.9-6.7
	c15.1-2.3,11,13.2,11.4,22.1h-3.7V205.5z M403.4,200.8c0-3-2.6-3.4-8.3-3.4c-3.4,0.2-12.7-1.2-11.7,3.4c-0.1,3,0.4,4.1,5.9,4.1
	C394.4,204.9,405.1,206.1,403.4,200.8z"/>
<path class="st1" d="M415.7,176.8h3.7v30.9h-3.7V176.8z"/>
<path class="st1" d="M430.5,188.9h-4.8v-3h4.8v-5.2h3.7v5.2h14.5v3h-14.5c0.8,4.6-3,17.3,5.4,16.1c5.9,0.6,7.3-1.8,6.8-7.2h3
	c0.8,6.4-1.1,11.1-10.4,10.2C426.2,208.3,431.6,195.9,430.5,188.9z"/>
<path class="st1" d="M487.3,194.4c0-7.9,5.5-8.8,10.9-8.8c6.7-0.5,17,0.1,15.7,8h-3.4c0.8-6.8-8.6-4.7-12.8-5
	c-6.3-0.9-7.3,4.9-6.7,10.5c0,4.9,3,6,7.4,6c4.3-0.2,13.2,1.4,12.5-5.3h3.4c1.5,9.7-10.9,8.3-17.8,8.3
	C490,208.9,486.1,202.5,487.3,194.4z"/>
<path class="st1" d="M544.1,205.5L544.1,205.5c-1.1,2-2.2,2.5-7.9,2.5c-5.4-0.1-17.1,1.7-15.8-6.5c-0.5-5.8,2.7-7.2,9.9-7
	c3.9,0.1,12.6-0.8,13.7,2.6h0.1c0.3-5.8,0.2-9.1-8.1-8.5c-3.4,0.1-12.4-0.9-10.9,3.7h-3.7c-1.7-7.2,8.8-6.9,14.9-6.7
	c15.1-2.3,11,13.2,11.4,22.1h-3.7V205.5z M544.1,200.8c0-3-2.6-3.4-8.3-3.4c-3.4,0.2-12.7-1.2-11.7,3.4c-0.1,3,0.4,4.1,5.9,4.1
	C535.1,204.9,545.8,206.1,544.1,200.8z"/>
<path class="st1" d="M556.2,185.9h3.4v3.2h0.1c2-4.1,6.5-3.5,10.1-3.5c8.3-0.3,9.5,3.9,9.1,10.2h-3.4c0.9-6.9-3.1-7.5-9.9-7.2
	c-9.3-0.4-4.7,14.1-5.8,19.1h-3.7V185.9z"/>
<path class="st1" d="M584,194.4c0.1-10.8,9.8-8.5,16.6-8.8c7.8-0.5,12.2,3.6,11.3,11.9h-24.2c-0.4,5.6,1.6,7.8,8.8,7.6
	c3.9-0.2,12.2,1.2,11.7-3.9h3.7c1.1,7.9-11.3,7-17.6,6.9C586.6,209,582.8,202.8,584,194.4z M608.2,193c1.1-4.3-8.7-4.9-13-4.4
	c-5.8,0-7.2,0.9-7.5,5.9h20.5V193z"/>
<path class="st1" d="M640.8,200.2h3.4c-1.5,6.8,9,4.5,13,4.9c8.4,1.5,10.6-7,2.3-6.9c-5.8-0.5-20.4,2.8-18.4-7.1
	c-1.7-5.4,10.4-5.9,16.7-5.5c9.1,0.1,9.5,2.5,9.4,6.6h-3.4c0.7-5.6-9-3.1-12.6-3.6c-5.2,0-6.4,0.5-6.4,3c-0.1,2.4,0.1,3.6,4.4,3.6
	c6,0.8,19.5-3.1,19,6.5c-0.3,8.8-11.2,5.7-16.9,6.3C645.3,208.3,640.1,207.2,640.8,200.2z"/>
<path class="st1" d="M675.2,194.4c-0.4-9.5,10-9,17.3-8.8c9.7-0.8,13.2,5.1,12,13.6c0.4,9.5-10,9-17.3,8.8
	C677.5,208.8,674.1,202.9,675.2,194.4z M700.9,194.6c0.4-8.3-9.5-5.6-14.7-6.1c-6.7-0.9-7.8,4.8-7.2,10.4c-0.4,8.3,9.5,5.6,14.7,6.1
	C700.4,205.9,701.5,200.2,700.9,194.6z"/>
<path class="st1" d="M713,176.8h3.7v30.9H713V176.8z"/>
<path class="st1" d="M749.2,203.9L749.2,203.9c-1.6,5.1-9.6,4-14.4,4.1c-13.7,0.5-7.8-14.6-9.1-22.1h3.7c1.5,6.8-5,20.1,8,19.1
	c15.7,1.9,10.7-10.2,11.5-19.1h3.7v21.8h-3.4V203.9z"/>
<path class="st1" d="M763.2,188.9h-4.8v-3h4.8v-5.2h3.7v5.2h14.5v3h-14.5c0.8,4.6-3,17.3,5.4,16.1c5.9,0.6,7.3-1.8,6.8-7.2h3
	c0.8,6.4-1.1,11.1-10.4,10.2C758.9,208.3,764.3,195.9,763.2,188.9z"/>
<path class="st1" d="M788.7,176.8h3.7v4h-3.7V176.8z M788.7,185.9h3.7v21.8h-3.7V185.9z"/>
<path class="st1" d="M800.8,194.4c-0.4-9.5,10-9,17.3-8.8c9.7-0.8,13.2,5.1,12,13.6c0.4,9.5-10,9-17.3,8.8
	C803.1,208.8,799.7,202.9,800.8,194.4z M826.4,194.6c0.4-8.3-9.5-5.6-14.7-6.1c-6.7-0.9-7.8,4.8-7.2,10.4c-0.4,8.3,9.5,5.6,14.7,6.1
	C825.9,205.9,827,200.2,826.4,194.6z"/>
<path class="st1" d="M838,185.9h3.4v3.8h0.1c1.5-5.1,9.6-4,14.3-4.1c13.7-0.5,7.8,14.6,9,22.1h-3.7c-1.5-6.8,5-20.1-8-19.1
	c-15.7-1.9-10.7,10.2-11.5,19.1H838V185.9z"/>
<path class="st1" d="M872.6,200.2h3.4c-1.5,6.8,9,4.5,13,4.9c8.4,1.5,10.6-7,2.3-6.9c-5.8-0.5-20.4,2.8-18.4-7.1
	c-1.7-5.4,10.4-5.9,16.7-5.5c9.1,0.1,9.5,2.5,9.4,6.6h-3.4c0.7-5.6-9-3.1-12.6-3.6c-5.3,0-6.4,0.5-6.4,3c-0.1,2.4,0.1,3.6,4.4,3.6
	c6,0.8,19.5-3.1,18.9,6.5c-0.3,8.8-11.2,5.7-16.9,6.3C877.1,208.3,871.9,207.2,872.6,200.2z"/>
<rect x="248.2" y="63.3" class="st1" width="4.4" height="177.9"/>
<g>
	<path class="st2" d="M2.3,135.7c0-52.8,36.5-58.8,71.3-58.8H113c43.9,0,75.6,11.1,75.6,63v16.3H26.8v9.1c0,33.1,16,41.6,58.8,41.6
		h33.7c30.8,0,43.4-4,44.8-26.2h24.5v2.9c0,33.4-27.7,43.4-73.3,43.4H70.7c-32,0-68.5-6-68.5-59.6V135.7z M164,126.5
		c0-14.8-11.1-29.7-51.1-29.7H77c-38.8,0-47.9,6.3-50.2,39.4H164V126.5z"/>
</g>
<path class="st1" d="M454.7,176.8h3.7v12.9h0.1c1.5-5.1,9.3-4,14-4.1c13.7-0.5,7.8,14.6,9,22.1h-3.7c-1.5-6.9,5-20.1-8-19.1
	c-15.7-1.9-10.7,10.2-11.5,19.1h-3.7V176.8z"/>
</svg>
