<?xml version="1.0" encoding="utf-8"?>
<!-- Generator: Adobe Illustrator 26.0.3, SVG Export Plug-In . SVG Version: 6.00 Build 0)  -->
<svg version="1.1" id="Livello_1" xmlns="http://www.w3.org/2000/svg" xmlns:xlink="http://www.w3.org/1999/xlink" x="0px" y="0px"
	 viewBox="0 0 189.3 300" style="enable-background:new 0 0 189.3 300;" xml:space="preserve">
<style type="text/css">
	.st0{fill:#009AA0;}
</style>
<g>
	<path class="st0" d="M2.3,135.7c0-52.8,36.5-58.8,71.3-58.8H113c43.9,0,75.6,11.1,75.6,63v16.3H26.8v9.1c0,33.1,16,41.6,58.8,41.6
		h33.7c30.8,0,43.4-4,44.8-26.2h24.5v2.9c0,33.4-27.7,43.4-73.3,43.4H70.7c-32,0-68.5-6-68.5-59.6v-31.7H2.3z M164,126.5
		c0-14.8-11.1-29.7-51.1-29.7H77c-38.8,0-47.9,6.3-50.2,39.4H164V126.5z"/>
</g>
</svg>
